# AST/ASF file generated using VICON BodyLanguage
# -----------------------------------------------
:version 1.10
:name VICON
:units
  mass 1.0
  length 0.45
  angle deg
:documentation
   .ast/.asf automatically generated from VICON data using
   VICON BodyBuilder and BodyLanguage model FoxedUp or BRILLIANT.MOD
:root
   order TX TY TZ RX RY RZ
   axis XYZ
   position 0 0 0  
   orientation 0 -0 0 
:bonedata
  begin
     id 1 
     name lhipjoint
     direction 0.500677 -0.737119 0.453848 
     length 2.34727 
     axis 0 -0 0  XYZ
  end
  begin
     id 2 
     name lfemur
     direction 0.34202 -0.939693 0  
     length 7.53653  
     axis 0 -0 20  XYZ
    dof rx ry rz
    limits (-160.0 20.0)
           (-70.0 70.0)
           (-60.0 70.0)
  end
  begin
     id 3 
     name ltibia
     direction 0.34202 -0.939693 0   
     length 6.85572   
     axis 0 -0 20   XYZ
    dof rx
    limits (-10.0 170.0)
  end
  begin
     id 4 
     name lfoot
     direction 0.155313 -0.426718 0.890949   
     length 2.18324   
     axis -90 -1.13533e-015 20   XYZ
    dof rx rz
    limits (-45.0 90.0)
           (-70.0 20.0)
  end
  begin
     id 5 
     name ltoes
     direction 1.53474e-011 -4.21647e-011 1   
     length 1.06748   
     axis -90 -1.13533e-015 20   XYZ
    dof rx
    limits (-90.0 20.0)
  end
  begin
     id 6 
     name rhipjoint
     direction -0.632471 -0.659587 0.406111   
     length 2.62319  
     axis 0 -0 0  XYZ 
  end
  begin
     id 7 
     name rfemur
     direction -0.34202 -0.939693 0   
     length 7.21735   
     axis 0 -0 -20   XYZ
    dof rx ry rz
    limits (-160.0 20.0)
           (-70.0 70.0)
           (-70.0 60.0)
  end
  begin
     id 8 
     name rtibia
     direction -0.34202 -0.939693 0   
     length 7.02558   
     axis 0 -0 -20   XYZ
    dof rx
    limits (-10.0 170.0)
 end
 begin
     id 9 
     name rfoot
     direction -0.16057 -0.441164 0.882945   
     length 2.10014  
     axis -90 1.13533e-015 -20   XYZ
    dof rx rz
    limits (-45.0 90.0)
           (-20.0 70.0)
  end
  begin
     id 10 
     name rtoes
     direction -1.53553e-011 -4.2192e-011 1   
     length 1.02554   
     axis -90 1.13533e-015 -20   XYZ
    dof rx
    limits (-90.0 20.0)
  end
  begin
     id 11 
     name lowerback
     direction 0.0401429 0.998861 -0.0258085   
     length 1.80848   
     axis 0 -0 0   XYZ
    dof rx ry rz
    limits (-20.0 45.0)
           (-30.0 30.0)
           (-30.0 30.0)
  end
  begin
     id 12 
     name upperback
     direction -0.0130978 0.999914 -0.000352645   
     length 1.8116   
     axis 0 -0 0   XYZ
    dof rx ry rz
    limits (-20.0 45.0)
           (-30.0 30.0)
           (-30.0 30.0)
  end
  begin
     id 13 
     name thorax
     direction -0.0300198 0.999453 0.0138573   
     length 1.81778   
     axis 0 -0 0   XYZ
    dof rx ry rz
    limits (-20.0 45.0)
           (-30.0 30.0)
           (-30.0 30.0)
  end
  begin
     id 14 
     name lowerneck
     direction -0.0401726 0.999191 -0.00173647   
     length 2.10594   
     axis 0 -0 0   XYZ
    dof rx ry rz
    limits (-20.0 45.0)
           (-30.0 30.0)
           (-30.0 30.0)
  end
  begin
     id 15 
     name upperneck
     direction 0.0119835 0.998501 0.0534085   
     length 2.07325   
     axis 0 -0 0   XYZ
    dof rx ry rz
    limits (-20.0 45.0)
           (-30.0 30.0)
           (-30.0 30.0)
  end
  begin
     id 16
     name head
     direction 0.00628309 0.999826 0.0175921  
     length 2.15096  
     axis 0 -0 0   XYZ
    dof rx ry rz
    limits (-20.0 45.0)
           (-30.0 30.0)
           (-30.0 30.0)
  end
  begin
     id 17 
     name lclavicle
     direction 0.895501 0.429681 -0.115981  
     length 4.18092  
     axis 0 -0 0   XYZ
    dof ry rz
    limits (-20.0 10.0)
           (0.0 20.0)
  end
  begin
     id 18 
     name lhumerus
     direction 1 -4.48961e-011 -3.38433e-028   
     length 5.77237   
     axis 180 -30 -90   XYZ
    dof rx ry rz
    limits (-60.0 90.0)
           (-90.0 90.0)
           (-90.0 90.0)
  end
  begin
     id 19
     name lradius
     direction 1 -4.4901e-011 1.11983e-026   
     length 2.91878   
     axis 180 -30 -90   XYZ
    dof rx
    limits (-10.0 170.0)
  end
  begin
     id 20
     name lwrist
     direction 1 -4.48934e-011 1.88176e-026   
     length 1.45939   
     axis -1.23311e-014 90 90   XYZ
    dof ry
    limits (-180.0 0.0)
 end
  begin
     id 21 
     name lhand
     direction 1 -4.4895e-011 3.76352e-026   
     length 1.06566   
     axis -2.40147e-014 90 90   XYZ
    dof rx rz
    limits (-90.0 90.0)
           (-45.0 45.0)
  end
  begin
     id 22 
     name lfingers
     direction 1 -4.49005e-011 7.52705e-026   
     length 0.859162   
     axis -4.80295e-014 90 90   XYZ
    dof rx
    limits (0.0 90.0)
  end
  begin
     id 23
     name lthumb
     direction 0.707107 -6.34885e-011 0.707107   
     length 1.23359   
     axis -90 45 -9.86935e-015   XYZ
    dof rx rz
    limits (-45.0 45.0)
           (-45.0 45.0)
  end
  begin
     id 24 
     name rclavicle
     direction -0.91006 0.40451 -0.0903492   
     length 4.23293  
     axis 0 -0 0   XYZ 
    dof ry rz
    limits (-10.0 20.0)
           (-20.0 0.0)
  end
  begin
     id 25 
     name rhumerus
     direction -1 -4.4897e-011 1.7415e-027  
     length 5.49854   
     axis 180 30 90   XYZ
    dof rx ry rz
    limits (-90.0 60.0)
           (-90.0 90.0)
           (-90.0 90.0)
  end
  begin
     id 26 
     name rradius
     direction -1 -4.48963e-011 1.21259e-026   
     length 3.1186   
     axis 180 30 90   XYZ
    dof rx
    limits (-10.0 170.0)
  end
  begin
     id 27 
     name rwrist
     direction -1 -4.48967e-011 1.88176e-026   
     length 1.5593   
     axis -1.23311e-014 -90 -90   XYZ
    dof ry
    limits (-180.0 0.0)
  end
  begin
     id 28
     name rhand
     direction -1 -4.4895e-011 3.76352e-026   
     length 0.71207   
     axis -2.40147e-014 -90 -90   XYZ
    dof rx rz
    limits (-90.0 90.0)
           (-45.0 45.0)
  end
  begin
     id 29
     name rfingers
     direction -1 -4.49005e-011 7.52705e-026   
     length 0.574089   
     axis -4.80295e-014 -90 -90   XYZ
    dof rx
    limits (0.0 90.0)
  end
  begin
     id 30
     name rthumb
     direction -0.707107 -6.34982e-011 0.707107   
     length 0.824281   
     axis -90 -45 9.86935e-015   XYZ
    dof rx rz
    limits (-45.0 45.0)
           (-45.0 45.0)
  end
:hierarchy
  begin
    root lhipjoint rhipjoint lowerback
    lhipjoint lfemur
    lfemur ltibia
    ltibia lfoot
    lfoot ltoes
    rhipjoint rfemur
    rfemur rtibia
    rtibia rfoot
    rfoot rtoes
    lowerback upperback
    upperback thorax
    thorax lowerneck lclavicle rclavicle
    lowerneck upperneck
    upperneck head
    lclavicle lhumerus
    lhumerus lradius
    lradius lwrist
    lwrist lhand lthumb
    lhand lfingers
    rclavicle rhumerus
    rhumerus rradius
    rradius rwrist
    rwrist rhand rthumb
    rhand rfingers
  end

#!OML:ASF C:\ViconDB\ViconDB\414\Spring2016\042216\male.ASF
:FULLY-SPECIFIED
:DEGREES
526
root 46.0024 17.6831 12.806 -26.8701 89.4085 -25.2938
lowerback -3.50119 -1.34361 4.67028
upperback -1.75023 -1.90754 -0.367511
thorax -0.00493596 -0.975962 -3.05872
lowerneck -2.2006 10.4956 1.1116
upperneck 3.1389 14.2869 -5.76595
head 1.90087 7.0672 -1.61607
rclavicle -2.43511e-014 -1.78906e-015
rhumerus -36.5518 -7.26699 -86.0625
rradius 33.383
rwrist 28.9183
rhand 13.0608 -19.1701
rfingers 7.12502
rthumb 38.0233 -44.963
lclavicle -2.43511e-014 -1.78906e-015
lhumerus -43.701 35.2603 72.6014
lradius 27.8491
lwrist -25.5315
lhand -8.69505 16.0474
lfingers 7.12502
lthumb 17.24 45.3027
rfemur -7.30306 8.20879 23.3283
rtibia 26.9386
rfoot -15.532 -4.56286
rtoes -1.39386
lfemur -7.87621 -4.28898 -21.0453
ltibia 34.0948
lfoot -21.0534 20.4435
ltoes -20.9502
527
root 46.0408 17.6751 12.81 -28.0175 89.3783 -26.6409
lowerback -3.50821 -1.35456 4.64835
upperback -1.76379 -1.9213 -0.358539
thorax -0.0150834 -0.983043 -3.03752
lowerneck -2.18881 10.4756 1.06256
upperneck 2.92008 14.246 -5.75731
head 1.82108 7.05024 -1.61432
rclavicle -5.24295e-015 -1.13307e-014
rhumerus -36.0319 -8.08465 -86.2643
rradius 34.433
rwrist 28.5545
rhand 13.0591 -19.3763
rfingers 7.12502
rthumb 38.0217 -45.1696
lclavicle -5.24295e-015 -1.13307e-014
lhumerus -45.5176 37.858 69.4003
lradius 26.7523
lwrist -26.7804
lhand -9.10767 16.4773
lfingers 7.12502
lthumb 16.8428 45.7669
rfemur -7.40045 7.97037 23.3439
rtibia 27.0087
rfoot -15.8598 -4.24991
rtoes -1.15713
lfemur -8.15978 -3.88909 -20.9834
ltibia 33.9966
lfoot -20.7548 20.5025
ltoes -20.5144
528
root 46.0771 17.6627 12.8139 -26.7612 89.3527 -25.5945
lowerback -3.52611 -1.33084 4.65727
upperback -1.76355 -1.89088 -0.367674
thorax -0.00281894 -0.967646 -3.0516
lowerneck -2.26584 10.4391 0.956422
upperneck 2.70449 14.1808 -5.67362
head 1.74595 7.01992 -1.57637
rclavicle -4.84538e-014 -7.95139e-016
rhumerus -35.4753 -7.59729 -86.9205
rradius 35.3021
rwrist 27.132
rhand 12.1464 -19.5032
rfingers 7.12502
rthumb 37.1591 -45.5264
lclavicle -4.84538e-014 -7.95139e-016
lhumerus -47.0703 39.4278 66.8699
lradius 26.0584
lwrist -27.6023
lhand -9.28107 16.8702
lfingers 7.12502
lthumb 16.6759 46.1739
rfemur -7.52187 7.82091 23.3271
rtibia 27.0851
rfoot -16.2326 -4.00398
rtoes -0.754916
lfemur -8.4295 -3.26268 -20.9652
ltibia 33.9503
lfoot -20.5269 20.5962
ltoes -20.2003
529
root 46.1118 17.6588 12.8181 -23.3147 89.3979 -22.366
lowerback -3.56404 -1.43971 4.4486
upperback -1.80629 -2.02973 -0.354999
thorax -0.0294392 -1.0367 -2.92582
lowerneck -2.09817 10.5399 1.32686
upperneck 2.40321 14.3015 -6.00982
head 1.68289 7.08703 -1.75117
rclavicle 5.26282e-014 7.35503e-015
rhumerus -34.9846 -7.03023 -87.7253
rradius 36.4161
rwrist 24.6779
rhand 11.1136 -20.4114
rfingers 7.12502
rthumb 36.1818 -46.6831
lclavicle 5.26282e-014 7.35503e-015
lhumerus -48.6582 40.562 64.4842
lradius 25.5334
lwrist -27.8939
lhand -9.40164 17.2421
lfingers 7.12502
lthumb 16.5598 46.5555
rfemur -7.6429 7.879 23.28
rtibia 27.1867
rfoot -16.6771 -3.99885
rtoes -0.406085
lfemur -8.62684 -2.81981 -20.9976
ltibia 33.9537
lfoot -20.7204 20.5854
ltoes -19.9715
530
root 46.1442 17.6482 12.8201 -20.789 89.3849 -20.0337
lowerback -3.55444 -1.39842 4.48083
upperback -1.76419 -1.97702 -0.373484
thorax 0.0111137 -1.00935 -2.96192
lowerneck -2.19125 10.4894 1.22178
upperneck 2.06396 14.2179 -6.06567
head 1.58217 7.04823 -1.75952
rclavicle 4.13472e-014 -3.18055e-015
rhumerus -34.4223 -6.14006 -88.444
rradius 37.4458
rwrist 22.8199
rhand 10.3418 -20.6483
rfingers 7.12502
rthumb 35.4505 -47.0979
lclavicle 4.13472e-014 -3.18055e-015
lhumerus -49.241 40.5622 63.5517
lradius 25.2366
lwrist -27.8397
lhand -9.217 17.6512
lfingers 7.12502
lthumb 16.7375 46.9497
rfemur -7.78133 7.94292 23.2664
rtibia 27.3369
rfoot -17.0304 -4.02558
rtoes -0.124971
lfemur -8.68212 -2.31263 -21.0085
ltibia 33.9573
lfoot -21.1872 20.2354
ltoes -20.0735
531
root 46.1773 17.6374 12.8227 -21.6968 89.36 -21.1388
lowerback -3.6091 -1.41464 4.40956
upperback -1.7117 -2.00107 -0.338268
thorax 0.0976441 -1.01812 -2.88901
lowerneck -2.21184 10.4885 1.30107
upperneck 1.68891 14.2008 -6.2829
head 1.48911 7.04453 -1.84921
rclavicle -1.35174e-014 2.98177e-015
rhumerus -33.8852 -4.92551 -89.238
rradius 38.4231
rwrist 21.2116
rhand 9.71456 -20.89
rfingers 7.12502
rthumb 34.8556 -47.4797
lclavicle -1.35174e-014 2.98177e-015
lhumerus -49.825 40.4235 62.8083
lradius 25.3117
lwrist -28.2812
lhand -8.83242 17.9027
lfingers 7.12502
lthumb 17.1077 47.1694
rfemur -7.9335 7.95872 23.3094
rtibia 27.5082
rfoot -17.3366 -4.08138
rtoes -0.290048
lfemur -8.70751 -1.94057 -20.9735
ltibia 33.939
lfoot -21.727 19.9227
ltoes -21.3164
532
root 46.2081 17.629 12.8255 -19.2655 89.3919 -18.8926
lowerback -3.7446 -1.45803 4.2048
upperback -1.60673 -2.06246 -0.288912
thorax 0.285985 -1.04207 -2.73154
lowerneck -2.12603 10.4926 1.10852
upperneck 1.10498 14.177 -6.32206
head 1.27404 7.04455 -1.85442
rclavicle -1.65737e-014 7.95139e-015
rhumerus -33.2919 -4.03937 -89.8686
rradius 39.3442
rwrist 20.2511
rhand 9.42072 -20.7895
rfingers 7.12502
rthumb 34.5767 -47.4433
lclavicle -1.65737e-014 7.95139e-015
lhumerus -49.9567 39.6859 62.7454
lradius 25.386
lwrist -28.5101
lhand -8.0696 17.6308
lfingers 7.12502
lthumb 17.8419 46.8323
rfemur -8.09552 8.0414 23.3088
rtibia 27.7237
rfoot -17.6445 -4.24916
rtoes -0.474176
lfemur -8.70839 -1.75 -20.9853
ltibia 33.8734
lfoot -20.9181 19.8735
ltoes -22.6751
533
root 46.2388 17.6206 12.8207 -14.895 89.4539 -14.7222
lowerback -3.66686 -1.50544 4.16095
upperback -1.65374 -2.11906 -0.319927
thorax 0.19022 -1.07304 -2.73734
lowerneck -1.95171 10.4986 1.28914
upperneck 0.647917 14.1624 -6.59397
head 1.1351 7.04831 -1.99099
rclavicle 4.03781e-015 -4.77083e-015
rhumerus -33.0257 -3.34022 -90.5055
rradius 40.4397
rwrist 19.2908
rhand 9.25096 -20.9652
rfingers 7.12502
rthumb 34.4156 -47.6557
lclavicle 4.03781e-015 -4.77083e-015
lhumerus -49.5977 37.8909 63.6489
lradius 25.8161
lwrist -27.7183
lhand -7.21783 17.7289
lfingers 7.12502
lthumb 18.6613 46.8538
rfemur -8.2597 7.94164 23.2273
rtibia 27.8896
rfoot -17.8572 -4.28556
rtoes -0.240819
lfemur -8.7354 -1.8395 -21.0785
ltibia 33.7748
lfoot -21.2923 19.9044
ltoes -22.3747
534
root 46.2684 17.6143 12.8149 -17.3359 89.5918 -17.2939
lowerback -3.61795 -1.56004 4.11302
upperback -1.62109 -2.18951 -0.297634
thorax 0.193814 -1.1076 -2.6888
lowerneck -1.81605 10.5309 1.41944
upperneck 0.104762 14.18 -6.88768
head 0.974845 7.06973 -2.12671
rclavicle 1.6847e-014 7.55382e-015
rhumerus -32.7178 -2.69429 -91.0031
rradius 41.4126
rwrist 18.7038
rhand 8.99196 -20.7806
rfingers 7.12502
rthumb 34.1696 -47.5266
lclavicle 1.6847e-014 7.55382e-015
lhumerus -49.1942 36.3037 64.6081
lradius 26.143
lwrist -26.9803
lhand -6.81438 17.3614
lfingers 7.12502
lthumb 19.0493 46.4486
rfemur -8.31631 7.70737 23.1864
rtibia 28.0247
rfoot -18.0957 -4.21991
rtoes -0.311278
lfemur -8.70999 -1.94473 -21.1349
ltibia 33.655
lfoot -21.878 19.8493
ltoes -21.5587
535
root 46.2989 17.6174 12.8084 -33.5377 89.6252 -33.6831
lowerback -3.77261 -1.50121 4.1971
upperback -1.4883 -2.12571 -0.227187
thorax 0.421311 -1.06921 -2.66902
lowerneck -1.80251 10.413 1.40088
upperneck -0.38478 14.0079 -7.28902
head 0.84153 6.99483 -2.27044
rclavicle 8.07563e-015 -5.96354e-015
rhumerus -32.2745 -2.1784 -91.2872
rradius 42.4755
rwrist 17.9404
rhand 8.92168 -20.833
rfingers 7.12502
rthumb 34.1029 -47.5939
lclavicle 8.07563e-015 -5.96354e-015
lhumerus -48.5436 34.7597 65.8577
lradius 26.5249
lwrist -26.1154
lhand -6.68758 17.1782
lfingers 7.12502
lthumb 19.1713 46.2533
rfemur -8.41644 7.67963 23.2546
rtibia 28.1038
rfoot -18.3094 -4.29544
rtoes -0.137844
lfemur -8.74753 -2.14809 -21.1054
ltibia 33.5273
lfoot -21.9471 20.0457
ltoes -21.2885
536
root 46.3258 17.6114 12.7996 -48.8169 89.5862 -49.0381
lowerback -3.67493 -1.54166 4.28824
upperback -1.45244 -2.17974 -0.233638
thorax 0.395637 -1.0969 -2.72604
lowerneck -1.61807 10.4596 1.73817
upperneck -0.844733 14.043 -7.60753
head 0.718074 7.02476 -2.44869
rclavicle 3.56322e-014 3.18055e-015
rhumerus -32.0836 -1.56055 -91.8153
rradius 43.4353
rwrist 18.0089
rhand 9.06675 -20.5907
rfingers 7.12502
rthumb 34.2407 -47.3208
lclavicle 3.56322e-014 3.18055e-015
lhumerus -47.8723 32.9161 66.9469
lradius 26.8024
lwrist -25.0609
lhand -6.63631 16.8625
lfingers 7.12502
lthumb 19.2206 45.9327
rfemur -8.41141 7.54047 23.3208
rtibia 28.1705
rfoot -18.4663 -4.19149
rtoes 0.0216629
lfemur -8.61174 -2.60494 -21.1063
ltibia 33.3989
lfoot -21.0701 20.5986
ltoes -22.561
537
root 46.3543 17.6083 12.7897 -61.3277 89.5725 -61.6897
lowerback -3.62398 -1.55579 4.37503
upperback -1.45736 -2.199 -0.212458
thorax 0.35798 -1.10765 -2.75168
lowerneck -1.43309 10.4309 1.77606
upperneck -1.28043 13.9814 -7.77794
head 0.562484 7.0077 -2.53604
rclavicle -4.48135e-014 -3.37934e-015
rhumerus -31.9625 -0.824718 -92.2205
rradius 44.299
rwrist 17.9211
rhand 9.32555 -20.272
rfingers 7.12502
rthumb 34.4864 -46.9464
lclavicle -4.48135e-014 -3.37934e-015
lhumerus -47.3994 30.7027 68.3776
lradius 27.2829
lwrist -23.5488
lhand -6.3802 16.6248
lfingers 7.12502
lthumb 19.4668 45.6703
rfemur -8.46588 7.20469 23.2932
rtibia 28.1936
rfoot -18.6406 -3.83064
rtoes 0.150729
lfemur -8.569 -3.03853 -21.1541
ltibia 33.302
lfoot -21.3896 21.0205
ltoes -22.1515
